<!-- Generated by IcoMoon.io -->
<svg version="1.1" xmlns="http://www.w3.org/2000/svg" width="64" height="32" viewBox="0 0 64 32" stroke='#3470ff'>
<path d="M33.65 7.83c-0.070 0.015-0.16 0.070-0.2 0.12-0.055 0.070-0.21 0.115-0.63 0.17-0.775 0.11-2.145 0.4-2.745 0.585-1.92 0.595-4.95 1.96-7.7 3.475l-0.755 0.41-0.77 0.035c-3.74 0.15-7.85 0.545-10.685 1.020-2.655 0.45-4.225 0.88-5.49 1.505-1.365 0.67-1.4 0.715-1.36 1.7 0.015 0.385 0.075 0.865 0.155 1.245 0.15 0.705 0.165 1.185 0.050 1.655-0.040 0.185-0.060 0.4-0.045 0.495 0.050 0.255 0.235 0.595 0.475 0.865l0.21 0.24h0.53c0.665 0 0.86 0.050 1.030 0.27 0.155 0.205 0.17 0.205 1.83 0.28 0.62 0.030 1.265 0.065 1.44 0.080l0.31 0.030 0.005-0.945c0.005-0.515 0.020-1.075 0.040-1.24l0.035-0.3 0.040 0.5c0.020 0.275 0.070 0.655 0.105 0.84 0.080 0.385 0.425 1.14 0.695 1.51 0.25 0.345 0.755 0.85 1.015 1.015 0.12 0.075 0.215 0.145 0.215 0.16s-2.505 0.030-5.565 0.035c-3.055 0.005-5.635 0.025-5.72 0.040-0.3 0.055-0.17 0.11 0.325 0.145 0.265 0.020 2.97 0.055 6.010 0.080 3.095 0.030 5.645 0.070 5.8 0.095 0.15 0.030 0.365 0.080 0.475 0.115 0.3 0.090 1.365 0.075 1.9-0.030 0.415-0.080 1.025-0.090 7.925-0.115 8.955-0.030 24.98 0.060 26.050 0.145 0.945 0.080 1.82 0.075 2.625 0 0.455-0.045 2.465-0.075 6.66-0.1 3.305-0.020 6.025-0.050 6.045-0.075 0.155-0.15-0.080-0.16-5.87-0.19-3.18-0.020-5.825-0.050-5.875-0.070-0.070-0.030-0.050-0.060 0.13-0.18 0.12-0.080 0.42-0.35 0.665-0.605 0.465-0.48 0.72-0.905 0.975-1.615 0.15-0.415 0.19-1.625 0.075-2.175-0.245-1.145-1.225-2.365-2.295-2.85-1.64-0.745-3.48-0.415-4.735 0.845-0.855 0.86-1.2 1.715-1.2 2.97 0.005 1.195 0.355 2.045 1.225 2.94 0.185 0.195 0.455 0.43 0.595 0.53l0.255 0.175-10.75-0.030c-5.91-0.015-13.12-0.035-16.010-0.035-2.895-0.005-5.265-0.020-5.265-0.040s0.060-0.070 0.14-0.115c0.245-0.145 0.81-0.695 1.030-1.010 0.545-0.765 0.77-1.445 0.815-2.48 0.045-0.95 0.1-0.625 0.16 0.965 0.025 0.715 0.055 1.3 0.065 1.31s6.18 0 13.715-0.020l13.7-0.030 0.030-1.275c0.025-1.040 0.050-1.36 0.135-1.74 0.12-0.515 0.395-1.145 0.695-1.59 0.445-0.655 1.33-1.32 2.145-1.615 0.865-0.315 2.090-0.335 2.945-0.050 1.57 0.525 2.635 1.8 2.9 3.46 0.040 0.255 0.085 0.92 0.105 1.48l0.035 1.015 0.305-0.030c0.17-0.020 1.105-0.155 2.080-0.305s2.17-0.315 2.65-0.375c0.97-0.12 1.495-0.22 1.675-0.31 0.135-0.075 1.085-1.075 1.175-1.235 0.040-0.080 0.040-0.205-0.005-0.495-0.050-0.34-0.045-0.455 0.050-0.985 0.055-0.33 0.12-0.875 0.14-1.215l0.030-0.62-0.285-0.555c-0.375-0.745-0.45-1.065-0.41-1.735 0.015-0.29 0.060-0.735 0.1-0.99l0.075-0.465-0.205-0.29-0.2-0.29-0.72-0.035c-0.4-0.020-1.155-0.085-1.685-0.155-0.53-0.065-1.265-0.145-1.635-0.175-0.67-0.060-0.685-0.065-2.25-0.61-1.79-0.63-3.915-1.335-4.87-1.615-0.605-0.185-0.645-0.205-0.71-0.355-0.080-0.19-0.19-0.22-1.645-0.465-1.995-0.335-3.775-0.51-6.625-0.66-1.040-0.050-7.69-0.105-7.9-0.065zM42.725 8.245c2.065 0.17 4.565 0.51 6.090 0.83 0.43 0.090 0.495 0.14 0.35 0.28l-0.105 0.105-0.39-0.15c-0.505-0.195-1.035-0.325-1.82-0.455-1.38-0.225-3.915-0.45-6.3-0.56-1.48-0.065-5.090-0.035-5.825 0.050-1.35 0.16-2.255 0.32-3.23 0.585-0.68 0.185-0.825 0.195-1.090 0.1-0.22-0.080-0.2-0.085 0.665-0.28 1.27-0.28 2.275-0.425 3.655-0.525 1.080-0.080 6.975-0.065 8 0.020zM41.975 8.62c0.94 0.080 2.63 0.26 2.915 0.31 0.17 0.035 0.26 0.14 0.18 0.22-0.025 0.025-0.2 0.015-0.4-0.025-0.2-0.035-0.525-0.085-0.725-0.1-0.205-0.020-0.45-0.055-0.545-0.080-0.475-0.115-3.050-0.275-5.305-0.33-1.19-0.030-1.5-0.050-1.17-0.070 0.74-0.055 4.085 0 5.050 0.075zM46.9 9.255c1.735 0.31 2.6 0.545 5.875 1.595 3.39 1.085 4.78 1.445 6.145 1.59 0.235 0.020-0.29 0.045-1.53 0.060-1.035 0.015-1.9 0.040-1.92 0.060-0.020 0.025-0.020 0.055 0 0.075 0.020 0.025 1.175 0.060 2.57 0.090l2.53 0.050 0.185 0.35c0.215 0.41 0.275 0.575 0.2 0.575-0.030 0-0.105-0.060-0.17-0.13-0.16-0.19-0.47-0.355-0.785-0.415-0.45-0.090-1.33-0.155-2.030-0.155-0.59 0-0.675 0.010-0.875 0.115l-0.22 0.12-3.65 0.035c-2.010 0.020-3.875 0.050-4.15 0.075-0.275 0.020-0.505 0.040-0.51 0.035s0.21-0.23 0.475-0.505c0.265-0.275 0.57-0.62 0.67-0.775 0.105-0.15 0.27-0.39 0.365-0.525 0.185-0.255 0.2-0.355 0.1-0.67-0.035-0.105-0.030-0.11 0.065-0.060 0.055 0.030 0.165 0.080 0.24 0.11 0.14 0.050 0.14 0.050 0.045-0.050-0.050-0.060-0.065-0.105-0.035-0.105 0.095 0 0.31 0.305 0.31 0.44 0 0.17-0.155 0.43-0.325 0.54-0.1 0.065-0.115 0.095-0.065 0.125 0.050 0.035 0.050 0.045-0.005 0.045-0.040 0-0.115 0.035-0.165 0.085-0.11 0.1-0.12 0.315-0.015 0.315 0.055 0 0.070-0.035 0.045-0.12-0.020-0.090-0.005-0.125 0.070-0.14 0.125-0.035 0.38-0.38 0.49-0.67 0.1-0.27 0.060-0.395-0.19-0.585-0.38-0.285-2.145-0.88-3.815-1.28-0.47-0.115-0.96-0.235-1.1-0.27-0.2-0.050-0.255-0.085-0.265-0.175-0.015-0.105-0.005-0.115 0.15-0.085 0.090 0.015 0.67 0.12 1.29 0.23zM29.945 9.26c0.055 0.15 0.005 0.21-0.285 0.315-0.225 0.085-1.215 0.56-4.535 2.165-1.75 0.845-1.98 0.925-2.425 0.88-0.32-0.035-0.325-0.035-0.16-0.090 0.090-0.030 0.15-0.070 0.135-0.090-0.135-0.13 4.69-2.45 6.35-3.055 0.775-0.28 0.855-0.29 0.92-0.125zM37.465 9.185c0.025 0.040-1.145 3.265-1.205 3.325-0.055 0.050-2.265 0.14-4.76 0.195-1.25 0.025-2.49 0.060-2.75 0.075-0.6 0.030-0.64 0.005-0.53-0.31 0.115-0.335 0.1-0.525-0.050-0.745-0.070-0.105-0.115-0.215-0.1-0.25 0.030-0.085 1.030-0.59 1.955-0.99 2.315-0.995 3.835-1.3 6.66-1.325 0.415-0.005 0.77 0.005 0.78 0.025zM38.2 9.21c0 0.035-0.1 0.56-0.22 1.165s-0.26 1.315-0.305 1.575c-0.050 0.26-0.105 0.495-0.125 0.515-0.040 0.050-0.895 0.060-0.94 0.015-0.030-0.030 0.63-1.89 1.135-3.195 0.045-0.115 0.080-0.135 0.255-0.135 0.125 0 0.2 0.025 0.2 0.060zM39.8 9.2c1.4 0.085 3.2 0.265 4.245 0.43 0.835 0.135 2.61 0.525 3.38 0.745 0.9 0.26 1.925 0.63 1.89 0.69-0.010 0.020-0.070 0.025-0.13 0.005-0.1-0.030-0.1-0.025-0.040 0.050 0.050 0.060 0.11 0.075 0.195 0.055l0.12-0.030-0.16 0.29c-0.21 0.365-0.535 0.85-0.605 0.89-0.030 0.020-0.24 0.020-0.47 0-0.35-0.030-0.42-0.050-0.44-0.13-0.035-0.125-0.215-0.125-0.25 0-0.030 0.115-0.14 0.12-5.625 0.235-2.73 0.055-3.985 0.065-4.020 0.030s0.045-0.56 0.265-1.68l0.32-1.63h0.25c0.14 0 0.62 0.025 1.075 0.050zM31.345 9.32c-0.010 0.010-0.2 0.080-0.42 0.155-1.15 0.4-2.745 1.155-5.16 2.435-1.51 0.795-2.41 1.195-2.69 1.185-0.055 0 0.125-0.090 0.4-0.2 0.275-0.105 1.615-0.755 2.975-1.44 2.64-1.33 3.47-1.715 4.27-1.985 0.445-0.15 0.69-0.21 0.625-0.15zM50.635 9.73c1.195 0.365 3.025 0.98 3 1.005-0.025 0.020-0.405-0.085-2.785-0.79-0.7-0.21-1.25-0.395-1.25-0.425 0-0.070 0.395 0.010 1.035 0.21zM49.97 11.085c0.020 0.045-0.020 0.18-0.080 0.295-0.125 0.235-0.74 1.015-0.805 1.020-0.020 0 0.070-0.165 0.205-0.365 0.31-0.46 0.46-0.75 0.46-0.9 0-0.065 0.015-0.13 0.030-0.15 0.045-0.045 0.16 0.015 0.19 0.1zM59.050 12.055c0.755 0.080 1.61 0.165 1.9 0.18 0.505 0.025 0.7 0.090 0.7 0.225 0 0.025-0.24 0.035-0.535 0.030-0.42-0.010-0.535-0.030-0.525-0.080 0.005-0.040-0.025-0.060-0.075-0.050-0.055 0.010-0.095 0.070-0.105 0.155l-0.015 0.135-1.685-0.010-1.685-0.005 1.475-0.045c1.635-0.045 1.775-0.060 1.82-0.17 0.055-0.14-0.020-0.17-0.385-0.17-0.4 0-1.37-0.11-2.060-0.23-0.475-0.085-0.745-0.18-0.4-0.14 0.11 0.010 0.82 0.090 1.575 0.175zM27.8 12.3c0 0.1 0.020 0.2 0.050 0.23 0.080 0.080-0.020 0.17-0.265 0.245-0.13 0.040-0.235 0.060-0.235 0.045s0.070-0.085 0.15-0.155c0.165-0.135 0.19-0.27 0.075-0.365-0.065-0.055-0.065-0.075 0.035-0.17 0.135-0.125 0.19-0.080 0.19 0.17zM48.37 12.745l0.445 0.030-0.22 0.19c-0.12 0.105-0.275 0.24-0.345 0.305-0.1 0.085-0.23 0.125-0.625 0.17-1.185 0.145-3.25 0.76-4.23 1.265-0.245 0.12-0.26 0.22-0.025 0.18 0.25-0.040 0.945-0.375 0.905-0.435-0.020-0.030 0.035-0.050 0.14-0.050 0.090 0 0.525-0.1 0.965-0.22 1.21-0.335 2.3-0.555 2.455-0.495 0.040 0.015-0.010 0.115-0.15 0.275-0.415 0.49-0.75 0.84-0.81 0.84-0.030 0-0.095 0.075-0.135 0.17-0.085 0.175-0.92 1.305-1.225 1.655-0.095 0.11-0.35 0.445-0.565 0.75-0.4 0.57-0.565 0.75-0.76 0.845-0.070 0.035-0.145 0.15-0.2 0.305l-0.085 0.25-0.005-0.31c0-0.305-0.070-0.445-0.155-0.31-0.025 0.040-0.045 0.17-0.045 0.295 0 0.26-0.060 0.345-0.245 0.355-0.125 0.005-0.12 0.010 0.020 0.045 0.15 0.040 0.15 0.040-0.040 0.045-0.105 0-0.255-0.030-0.34-0.070-0.080-0.045-0.17-0.065-0.195-0.050-0.055 0.035-2.365 0.17-3.5 0.205-0.425 0.010-1.355 0.050-2.060 0.085-1.14 0.055-1.295 0.050-1.325-0.015-0.115-0.255-0.045-4.11 0.085-4.56l0.050-0.18 0.365-0.030c0.705-0.060 0.73-0.065 0.46-0.075l-0.25-0.015 0.2-0.065c0.2-0.065 0.195-0.065-0.24-0.070s-0.44-0.005-0.405-0.12c0.045-0.145 0.36-0.61 0.575-0.845l0.17-0.185 2.875-0.050c1.58-0.025 3.235-0.035 3.675-0.015l0.8 0.035 0.015 0.24c0.035 0.53-0.175 0.63-1.615 0.785-0.435 0.045-3.965 0.15-5.040 0.15-0.325 0-0.385 0.015-0.385 0.080 0 0.075 0.255 0.080 3.115 0.055 1.715-0.015 3.19-0.050 3.285-0.075l0.175-0.050-0.175-0.010c-0.145-0.010-0.125-0.020 0.15-0.080 0.43-0.095 0.555-0.195 0.68-0.545 0.12-0.335 0.285-0.495 0.585-0.58 0.385-0.105 2.295-0.17 3.205-0.1zM61.645 13.175c-0.025 0.25-0.065 0.65-0.085 0.9l-0.040 0.45-0.19-0.6c-0.11-0.33-0.235-0.68-0.28-0.775-0.2-0.4-0.2-0.395 0.235-0.41 0.215-0.010 0.395-0.015 0.4-0.015 0.005 0.005-0.010 0.205-0.040 0.45zM20.765 12.97l0.195 0.065-0.345 0.030c-0.185 0.020-0.54 0.035-0.79 0.030h-0.45l0.25-0.070c0.52-0.14 0.86-0.155 1.14-0.055zM36.475 12.945l0.2 0.040-0.26 0.255c-0.145 0.145-0.265 0.285-0.265 0.31 0 0.030-0.035 0.065-0.075 0.080s-0.085 0.070-0.1 0.12c-0.075 0.235-0.525 0.29-3.225 0.4-1.53 0.060-7.3 0.28-8.61 0.33-0.6 0.020-0.89 0.015-0.89-0.020 0-0.025 0.070-0.2 0.15-0.385 0.175-0.395 0.175-0.38 0.065-0.34-0.165 0.055-0.26 0.175-0.35 0.425-0.050 0.14-0.135 0.285-0.19 0.32-0.11 0.070-0.98 0.125-3.925 0.25-1.46 0.060-1.89 0.095-1.95 0.15-0.060 0.060 0.075 0.070 0.975 0.070 0.96 0 3.51-0.1 4.515-0.18l0.415-0.030-0.025 0.17c-0.015 0.090-0.050 0.41-0.080 0.71s-0.080 0.59-0.105 0.64c-0.040 0.080-0.12 0.090-0.61 0.095-0.31 0.005-0.83 0.025-1.16 0.045l-0.6 0.030 0.825 0.020c0.78 0.020 0.8 0.020 0.35 0.050-0.415 0.025-0.37 0.030 0.39 0.040l0.86 0.010v0.12c0 0.065-0.035 0.135-0.080 0.15s-0.395 0.030-0.785 0.030c-1.12 0.005-2.035 0.075-2.125 0.165-0.070 0.070-0.040 0.115 0.255 0.425 0.185 0.19 0.335 0.38 0.335 0.42 0 0.045 0.105 0.16 0.24 0.255 0.35 0.255 0.405 0.27 0.21 0.065-0.145-0.155-0.16-0.19-0.1-0.23 0.085-0.055 1.25-0.065 1.755-0.020l0.335 0.035 0.030 0.23c0.060 0.415 0.095 1.105 0.060 1.105-0.1 0-0.795-0.41-1.695-1.010-0.465-0.305-0.625-0.38-0.345-0.16 0.095 0.075 0.19 0.185 0.21 0.25 0.025 0.065 0.070 0.12 0.1 0.12s0.040-0.025 0.025-0.050c-0.015-0.030-0.005-0.050 0.020-0.050 0.030 0 0.055 0.045 0.055 0.1 0 0.115 0.22 0.275 0.325 0.23 0.045-0.015 0.075 0 0.075 0.035 0 0.090 0.195 0.23 0.755 0.535 0.26 0.145 0.485 0.275 0.505 0.295 0.050 0.045 0.21 0.9 0.175 0.935-0.040 0.040-2.11 0.115-3.285 0.12h-1.030l-0.085-0.665c-0.105-0.81-0.22-1.275-0.485-1.955-0.245-0.625-0.48-1-0.92-1.47-0.43-0.45-0.76-0.7-1.26-0.955-1.15-0.575-2.61-0.7-3.895-0.33-0.825 0.24-1.525 0.595-1.525 0.775 0 0.055-0.025 0.11-0.060 0.13-0.040 0.025-0.045 0.010-0.025-0.045 0.015-0.050 0.015-0.085-0.010-0.085-0.065 0-0.705 0.695-0.705 0.765 0 0.035-0.055 0.14-0.125 0.235s-0.125 0.15-0.125 0.13c0-0.020 0.045-0.105 0.105-0.19 0.060-0.080 0.095-0.155 0.080-0.17-0.045-0.050-0.445 0.555-0.665 1.015-0.285 0.59-0.46 1.395-0.5 2.26-0.020 0.45-0.015 0.61 0.025 0.555s0.055 0.030 0.055 0.325c0 0.22 0.015 0.455 0.030 0.525 0.025 0.1 0.015 0.11-0.025 0.050-0.050-0.065-0.060-0.065-0.105 0-0.040 0.065-0.18 0.075-0.86 0.060-1.25-0.020-1.6-0.070-1.825-0.24l-0.185-0.14 0.52-0.060c0.525-0.060 0.9-0.17 0.9-0.265 0-0.030 0.12-0.135 0.27-0.23 0.455-0.305 0.745-0.825 0.81-1.47 0.060-0.535-0.14-0.6-1.54-0.515-1.205 0.075-1.26 0.1-1.56 0.73-0.12 0.255-0.26 0.495-0.31 0.53-0.080 0.070-0.085 0.060-0.055-0.15 0.050-0.385 0.235-0.9 0.375-1.055 0.155-0.17 0.485-0.27 1.1-0.325 0.405-0.040 0.53-0.115 0.2-0.13-0.21-0.005-0.21-0.005 0.060-0.040l0.275-0.035-0.305-0.005c-0.365-0.010-1.12 0.115-1.315 0.215-0.21 0.105-0.31 0.29-0.505 0.95l-0.185 0.6-0.68 0.030 0.035-0.14c0.015-0.075 0.045-0.405 0.065-0.725l0.030-0.59 0.255-0.145c0.145-0.080 0.285-0.18 0.325-0.22 0.075-0.090 0.15-0.82 0.155-1.445 0-0.545-0.080-0.665-0.495-0.74-0.15-0.030-0.28-0.060-0.295-0.070-0.065-0.065 1.31-0.65 1.94-0.825 1.745-0.485 3.39-0.795 6.075-1.15 3.020-0.4 6.835-0.735 8.9-0.78 1.5-0.030 0.865 0.045-1.825 0.225-4.625 0.305-7.375 0.61-10 1.105-1.28 0.245-3.010 0.755-3.575 1.060-0.275 0.145-0.3 0.175-0.295 0.32 0.010 0.195 0.255 0.57 0.425 0.65 0.14 0.065 0.81 0.030 2.045-0.115 1.025-0.115 1.3-0.19 1.635-0.44 0.495-0.365 1-0.87 1.21-1.205 0.115-0.18 0.23-0.325 0.26-0.325s0.645-0.080 1.365-0.175c2.21-0.295 3.625-0.42 7.68-0.675 2.475-0.155 3.34-0.245 3.79-0.375 0.15-0.045 0.28-0.070 0.29-0.060 0.055 0.055-0.090 0.285-0.21 0.345-0.075 0.035-0.15 0.095-0.16 0.13-0.015 0.055 0 0.060 0.085 0.015 0.055-0.035 0.105-0.045 0.105-0.030 0 0.020 0.060-0.015 0.13-0.070 0.075-0.060 0.215-0.125 0.315-0.155 0.165-0.040 3.050-0.17 6.88-0.3 1.645-0.055 4.090-0.145 4.525-0.17 0.565-0.025 0.83-0.025 1.025 0.015zM59.335 13.23c0.065 0.020 0.1 0.055 0.080 0.095-0.015 0.040 0.040 0.1 0.135 0.15 0.090 0.045 0.15 0.090 0.14 0.1-0.005 0.005-0.125-0.005-0.265-0.025-0.31-0.055-0.555-0.060-0.51-0.015 0.020 0.015-0.010 0.060-0.065 0.1-0.145 0.1-0.125 0.185 0.090 0.425l0.185 0.21-0.165-0.12c-0.090-0.070-0.255-0.24-0.365-0.385-0.205-0.26-0.4-0.38-0.435-0.27-0.010 0.035-0.175 0.055-0.46 0.055-0.305 0-0.45 0.020-0.465 0.060s-0.030 0.030-0.030-0.020c-0.005-0.045 0.035-0.11 0.085-0.135 0.080-0.050 0.080-0.050 0-0.055-0.155 0-0.14-0.085 0.025-0.17 0.14-0.075 0.275-0.080 1.035-0.055 0.48 0.015 0.925 0.040 0.985 0.055zM57.115 13.725c0.27 0.305 0.955 0.78 1.385 0.955 0.16 0.065 0.5 0.14 0.76 0.175 1.055 0.125 1.070 0.13 0.515 0.15l-0.5 0.015 0.8 0.060-0.39 0.010c-0.245 0.005-0.38 0.030-0.36 0.060s0.39 0.050 0.955 0.050h0.92l0.11-0.225c0.060-0.125 0.14-0.225 0.175-0.225s0.105 0.085 0.15 0.185c0.045 0.105 0.2 0.445 0.35 0.76 0.145 0.31 0.265 0.575 0.265 0.585s-0.175 0.015-0.385 0.010c-0.375-0.005-0.38-0.005-0.115-0.035 0.26-0.030 0.24-0.035-0.325-0.095-1.22-0.13-1.72-0.31-2.935-1.050-0.325-0.195-0.59-0.33-0.59-0.295-0.005 0.030-0.060-0.010-0.125-0.090-0.070-0.085-0.125-0.12-0.125-0.080s-0.015 0.060-0.030 0.045c-0.015-0.020-0.030-0.050-0.025-0.075 0-0.070-0.21-0.265-0.285-0.265-0.060 0-0.060 0.010-0.005 0.085 0.050 0.055 0.050 0.070 0.010 0.045-0.11-0.065-0.065 0.040 0.050 0.125 0.060 0.045 0.345 0.24 0.635 0.43 1.51 1.010 2.19 1.25 3.765 1.345 0.45 0.025 0.585 0.050 0.585 0.105 0 0.16-0.11 1.070-0.18 1.46-0.040 0.23-0.070 0.625-0.070 0.875s-0.020 0.485-0.045 0.52c-0.075 0.125-0.245-0.175-0.33-0.58-0.045-0.21-0.090-0.41-0.1-0.435-0.020-0.060-0.045 0.54-0.035 0.74 0.015 0.2 0.15 0.44 0.265 0.47 0.050 0.015 0.095 0.055 0.095 0.090 0 0.090-0.5 0.535-0.57 0.51-0.035-0.015-0.055-0.325-0.055-0.985 0-1.1 0.040-1.010-0.48-1.075-0.36-0.045-2.91 0.055-4.64 0.175-0.755 0.055-1.375 0.095-1.375 0.090-0.005-0.010-0.050-0.14-0.1-0.29-0.38-1.13-1.415-2.16-2.715-2.7-0.68-0.285-0.865-0.31-2.055-0.29-1.025 0.020-1.11 0.030-1.51 0.16-0.725 0.24-1.425 0.64-1.58 0.905-0.025 0.050-0.15 0.17-0.27 0.27-0.19 0.16-0.21 0.165-0.15 0.055l0.065-0.125-0.14 0.125c-0.23 0.21-0.575 0.69-0.55 0.76 0.015 0.035-0.005 0.11-0.045 0.165-0.070 0.095-0.075 0.095-0.045-0.025l0.025-0.125-0.080 0.11c-0.31 0.415-0.65 1.36-0.77 2.115l-0.085 0.55-0.15 0.025c-0.080 0.010-0.44 0.035-0.8 0.050l-0.65 0.030 0.225-0.23c0.125-0.125 0.275-0.24 0.335-0.255 0.075-0.020 0.145-0.125 0.25-0.385 0.095-0.24 0.175-0.375 0.255-0.41 0.060-0.025 0.11-0.075 0.11-0.1 0-0.125 1.635-2.365 2.085-2.86 0.105-0.115 0.195-0.24 0.205-0.275 0.025-0.1 0.22-0.29 0.295-0.29 0.035 0 0.065-0.040 0.065-0.090 0-0.095 0.115-0.245 0.795-1.035 0.46-0.535 0.48-0.55 0.725-0.59 0.39-0.060 3.085-0.12 5.83-0.125l2.475-0.010 0.24 0.275zM58.025 13.745c0.105 0.005 0.265 0.1 0.525 0.31 0.205 0.17 0.445 0.34 0.525 0.375l0.15 0.065h-0.15c-0.205 0.005-0.645-0.185-1.095-0.465-0.445-0.275-0.485-0.325-0.265-0.305 0.085 0.010 0.23 0.015 0.31 0.020zM35.83 14.47c-0.115 0.46-0.185 3.885-0.090 4.33 0.020 0.095 0.030 0.22 0.020 0.28-0.015 0.1-0.035 0.105-0.645 0.080-0.355-0.015-0.84 0-1.11 0.035-0.265 0.035-0.845 0.080-1.29 0.095-0.445 0.020-0.825 0.055-0.84 0.070-0.145 0.145 0.295 0.17 1.9 0.105 0.755-0.030 0.84-0.040 0.865-0.125 0.025-0.11 0.075-0.115 0.16-0.015 0.035 0.040 0.085 0.075 0.11 0.075 0.030 0 0.040-0.035 0.020-0.075-0.020-0.060 0.020-0.075 0.23-0.075 0.24 0 0.25 0.005 0.16 0.075-0.085 0.065-0.075 0.070 0.16 0.075 0.3 0 0.315 0.015 0.355 0.505 0.020 0.21 0.010 0.345-0.025 0.365-0.060 0.035-3.235 0.155-5.585 0.215-1.385 0.030-1.76 0.095-0.7 0.115 0.275 0.005 0.625 0.030 0.775 0.050 0.15 0.025-0.575 0.030-1.625 0.015-1.79-0.025-2.32-0.050-1.645-0.075 0.16-0.010-0.58-0.025-1.655-0.040l-1.95-0.025-0.065-0.415c-0.040-0.23-0.060-0.425-0.050-0.435s0.24 0 0.515 0.025c0.275 0.025 0.955 0.045 1.515 0.050 0.845 0 1.010-0.010 1.010-0.070 0-0.1-0.21-0.12-1.55-0.155-1.295-0.030-1.45-0.055-1.535-0.225-0.050-0.115-0.17-1.3-0.13-1.345 0.010-0.015 0.335-0.045 0.73-0.065 1.020-0.060 1.1-0.115 0.725-0.52-0.325-0.35-0.57-0.475-1.025-0.505-0.215-0.015-0.43-0.050-0.475-0.075-0.13-0.065-0.11-0.185 0.035-0.22 0.175-0.045 0.965 0.070 1.205 0.175 0.115 0.050 0.415 0.29 0.675 0.525 0.545 0.505 0.645 0.575 0.645 0.445 0-0.145-0.89-0.98-1.2-1.13-0.15-0.070-0.455-0.155-0.675-0.19-0.22-0.030-0.465-0.075-0.55-0.095l-0.15-0.030v-0.425c0-0.23 0.020-0.57 0.040-0.75l0.040-0.33 0.475-0.035c1.33-0.085 1.45-0.1 1.245-0.135-0.155-0.025-0.105-0.030 0.21-0.040 0.225 0 0.415 0.010 0.425 0.030 0.010 0.025 0.68 0.015 1.49-0.015 0.81-0.035 2.34-0.085 3.4-0.115 1.060-0.035 1.995-0.065 2.075-0.075 0.085-0.005 0.88-0.020 1.77-0.020l1.615-0.010-0.030 0.12zM10.165 14.7c-0.045 0.175-0.14 0.215-0.31 0.13-0.080-0.045-0.19-0.080-0.24-0.080-0.135 0-0.010-0.090 0.16-0.115 0.36-0.050 0.415-0.040 0.39 0.065zM58.175 15c0.12 0.085 0.235 0.175 0.255 0.205 0.015 0.030-0.095-0.030-0.25-0.135-0.155-0.1-0.28-0.19-0.28-0.2 0-0.045 0.070-0.010 0.275 0.13zM9.65 15.225c0.070 0.085-0.21 0.325-0.385 0.325-0.075 0-0.175 0.035-0.225 0.085-0.085 0.075-0.090 0.070-0.090-0.17 0-0.255 0-0.255 0.19-0.3 0.22-0.055 0.435-0.030 0.51 0.060zM51.255 15.345c0.455 0.105 0.995 0.315 1.435 0.555 0.21 0.115 0.29 0.135 0.32 0.090 0.030-0.050 0.040-0.045 0.040 0.010 0 0.045 0.16 0.235 0.355 0.425 0.73 0.72 1.195 1.575 1.42 2.62 0.125 0.575 0.2 1.885 0.125 2.225-0.035 0.185-0.075 0.27-0.1 0.23-0.020-0.035-0.055-0.44-0.075-0.895-0.050-1.325-0.155-1.895-0.5-2.635-0.55-1.205-1.62-2.090-2.92-2.425-0.54-0.14-2.025-0.135-2.57 0-1.2 0.31-2.26 1.135-2.925 2.275-0.17 0.29-0.31 0.575-0.31 0.63s-0.015 0.1-0.040 0.1c-0.020 0-0.080 0.275-0.13 0.61-0.11 0.715-0.16 0.89-0.265 0.89-0.060 0-0.070-0.040-0.045-0.2 0.015-0.11 0.045-0.29 0.060-0.4 0.020-0.135 0.015-0.2-0.025-0.2-0.030 0-0.055-0.045-0.055-0.105s0.020-0.085 0.055-0.070c0.035 0.025 0.040-0.025 0.015-0.15-0.020-0.125-0.015-0.18 0.020-0.16 0.025 0.020 0.065-0.040 0.085-0.145 0.015-0.1 0.085-0.265 0.145-0.365 0.15-0.235 0.51-0.95 0.55-1.085 0.020-0.060 0.080-0.15 0.14-0.2 0.105-0.095 0.105-0.095 0.045 0.020-0.095 0.185-0.035 0.18 0.105 0 0.12-0.155 1.165-1.225 1.11-1.135-0.045 0.080 0.060 0.045 0.46-0.135 0.44-0.2 1.095-0.4 1.545-0.47 0.445-0.065 1.44-0.020 1.93 0.095zM8.77 15.33c0.050 0.135 0.035 0.445-0.030 0.53-0.035 0.045-0.165 0.11-0.29 0.14s-0.265 0.070-0.315 0.080c-0.070 0.020-0.050-0.040 0.095-0.315 0.105-0.185 0.22-0.38 0.26-0.43 0.095-0.105 0.24-0.11 0.28-0.005zM14.45 15.325c0.56 0.085 1.12 0.26 1.6 0.5 0.385 0.195 0.44 0.21 0.35 0.1-0.055-0.065-0.050-0.070 0.020-0.045 0.045 0.015 0.080 0.050 0.080 0.070 0 0.065 0.255 0.35 0.31 0.35 0.030 0 0.020-0.035-0.015-0.085-0.13-0.155 0.115 0.010 0.28 0.19 0.085 0.095 0.105 0.135 0.050 0.090-0.365-0.29-0.17-0.065 0.26 0.3 0.075 0.065 0.1 0.090 0.055 0.055-0.050-0.035-0.090-0.045-0.090-0.020 0 0.070 0.215 0.27 0.295 0.275 0.050 0 0.055 0.010 0.020 0.030-0.045 0.015-0.005 0.14 0.13 0.405 0.105 0.21 0.255 0.555 0.325 0.76 0.31 0.85 0.565 2.24 0.435 2.32-0.080 0.050-0.13-0.115-0.255-0.87-0.245-1.505-0.755-2.535-1.61-3.25-0.465-0.39-0.82-0.59-1.405-0.79-0.475-0.165-0.565-0.175-1.26-0.2-1.225-0.035-1.965 0.12-2.81 0.595-0.53 0.3-1.215 0.985-1.51 1.515-0.475 0.84-0.645 1.57-0.7 3.010-0.020 0.53-0.050 0.985-0.075 1.005-0.090 0.090-0.13-0.155-0.13-0.81 0-1.51 0.26-2.595 0.84-3.465 0.13-0.195 0.445-0.57 0.7-0.83 0.25-0.265 0.46-0.505 0.46-0.54 0-0.050 0.010-0.050 0.045 0 0.030 0.050 0.11 0.025 0.365-0.11 0.5-0.275 1.245-0.5 1.965-0.595 0.34-0.045 0.83-0.030 1.275 0.040zM7.495 15.375c0.14 0.070 0.235 0.265 0.165 0.33-0.020 0.020-0.16 0.045-0.31 0.055-0.255 0.015-0.275 0.005-0.29-0.1-0.020-0.14 0.115-0.36 0.22-0.36 0.040 0 0.14 0.035 0.215 0.075zM6.75 15.85c0 0.365-0.045 0.4-0.565 0.4-0.36 0-0.38-0.005-0.51-0.155-0.070-0.090-0.11-0.175-0.090-0.195s0.21-0.085 0.415-0.145c0.205-0.060 0.43-0.13 0.5-0.155 0.235-0.080 0.25-0.065 0.25 0.25zM14.5 16.060c0.72 0.13 1.38 0.52 1.995 1.17 0.7 0.74 1.045 1.515 1.090 2.47 0.080 1.52-0.715 2.92-2.090 3.695l-0.28 0.155h-3.11l-0.24-0.13c-0.86-0.475-1.615-1.36-1.91-2.255-0.365-1.085-0.31-2.015 0.18-2.985 0.815-1.635 2.525-2.465 4.365-2.12zM50.865 16.205c0.575 0.105 1.23 0.46 1.745 0.94 0.84 0.785 1.255 1.72 1.25 2.825-0.010 1.52-0.82 2.835-2.155 3.495l-0.33 0.16-1.38 0.015-1.38 0.020-0.395-0.22c-0.575-0.315-1.37-1.115-1.66-1.675-0.365-0.7-0.515-1.515-0.415-2.23 0.245-1.75 1.615-3.15 3.305-3.39 0.305-0.040 1.040-0.010 1.415 0.060zM10.3 16.425c-0.090 0.095-0.18 0.16-0.195 0.145-0.025-0.025 0.285-0.315 0.34-0.32 0.015 0-0.050 0.080-0.145 0.175zM3.895 16.485c0.005-0.020 0.045-0.020 0.090 0.010 0.060 0.030 0.1 0.025 0.145-0.030 0.105-0.15 0.165-0.025 0.085 0.195-0.1 0.29-0.030 1.19 0.090 1.19 0.025 0 0.045 0.035 0.045 0.075 0 0.050-0.050 0.075-0.15 0.075-0.175 0-0.195 0.065-0.035 0.135l0.11 0.050-0.115 0.035c-0.065 0.025-0.13 0.025-0.145 0.010s-0.080-0.22-0.145-0.45c-0.095-0.375-0.1-0.425-0.035-0.45 0.080-0.030 0.075-0.2-0.010-0.805-0.020-0.145-0.015-0.175 0.020-0.1 0.025 0.055 0.050 0.080 0.050 0.060zM4.45 17.030c0 0.715-0.065 0.86-0.12 0.275-0.030-0.305 0.040-0.955 0.1-0.955 0.010 0 0.020 0.305 0.020 0.68zM16.9 16.825c0.035 0.040 0.040 0.075 0.010 0.075-0.025 0-0.075-0.035-0.11-0.075s-0.040-0.075-0.010-0.075c0.025 0 0.075 0.035 0.11 0.075zM22.275 16.98c-0.42 0.080-1.36 0.155-1.395 0.115-0.075-0.070-0.21-0.055-0.28 0.030-0.045 0.055-0.085 0.060-0.15 0.025-0.050-0.030-0.125-0.035-0.165-0.020-0.045 0.015-0.13 0-0.195-0.040-0.105-0.060-0.065-0.070 0.385-0.095 0.565-0.030 1.955-0.040 1.8-0.015zM22.735 17.11c0.030 0.035 0.065 0.14 0.080 0.23l0.035 0.165-0.24-0.185c-0.13-0.105-0.255-0.21-0.28-0.23-0.030-0.020 0.040-0.040 0.155-0.040 0.11 0 0.225 0.030 0.25 0.060zM23.98 17.22c0.135 0.075 0.325 0.2 0.42 0.285l0.17 0.145h-0.66c-0.595 0-0.67-0.010-0.76-0.1-0.1-0.1-0.13-0.27-0.065-0.425 0.050-0.135 0.585-0.075 0.895 0.095zM22.275 17.375l0.2 0.095-0.2 0.035c-0.11 0.020-0.46 0.040-0.78 0.040-0.54 0.005-0.835-0.045-0.98-0.16-0.155-0.115 0.025-0.145 0.78-0.125 0.62 0.020 0.82 0.040 0.98 0.115zM22.505 17.745l0.12 0.1-0.66 0.005c-0.63 0-0.915-0.045-0.915-0.145 0-0.025 0.3-0.050 0.665-0.050 0.6-0.010 0.68 0 0.79 0.090zM61.14 18.34c0.125 0.070 0.16 0.29 0.035 0.24-0.31-0.12-0.76-0.145-1.505-0.090-0.425 0.035-0.815 0.080-0.87 0.11-0.185 0.1-0.17 0.525 0.035 0.92 0.105 0.205 0.55 0.67 0.785 0.815 0.245 0.155 0.695 0.315 0.9 0.315 0.295 0.005 0.020 0.085-0.395 0.12-0.445 0.035-2.24 0.29-3.85 0.55-0.575 0.095-1.060 0.165-1.070 0.155s-0.015-0.23-0.010-0.485c0.010-0.545-0.075-1.565-0.165-2.050-0.065-0.33-0.060-0.345 0.040-0.365 0.175-0.040 1.785-0.17 2.83-0.225 0.535-0.030 1.11-0.060 1.275-0.070 0.65-0.035 1.85 0 1.965 0.060zM44.225 18.645c-0.015 0.030-0.055 0.055-0.085 0.055s-0.030-0.030 0.010-0.075c0.070-0.085 0.13-0.065 0.075 0.020zM7.81 18.96c-0.065 0.030-0.105 0.085-0.090 0.12 0.015 0.040 0.005 0.080-0.025 0.1-0.030 0.015-0.040 0.060-0.025 0.095 0.015 0.040-0.010 0.095-0.050 0.13-0.040 0.030-0.060 0.070-0.045 0.085s0 0.055-0.035 0.095c-0.045 0.055-0.040 0.090 0.020 0.15 0.060 0.055 0.070 0.115 0.035 0.225-0.055 0.205-0.28 0.49-0.385 0.49-0.045 0-0.15 0.045-0.235 0.1-0.105 0.070-0.235 0.1-0.425 0.1-0.385 0-0.59-0.070-0.805-0.275-0.1-0.1-0.28-0.21-0.4-0.25-0.2-0.060-0.205-0.070-0.070-0.070 0.21-0.010 0.24-0.040 0.415-0.38 0.2-0.4 0.36-0.555 0.665-0.625 0.23-0.055 0.97-0.13 1.395-0.14 0.165-0.005 0.165 0 0.060 0.050zM61.745 19.155c0.085 0.285 0.035 0.3-0.060 0.025-0.045-0.13-0.060-0.23-0.040-0.23s0.065 0.090 0.1 0.205zM5.795 19.080c-0.035 0.045-0.145 0.24-0.245 0.435-0.27 0.53-0.435 0.495-0.18-0.040 0.115-0.25 0.235-0.385 0.38-0.44 0.115-0.040 0.115-0.040 0.045 0.045zM43.595 19.16c-0.1 0.2-0.605 0.84-0.7 0.89-0.050 0.030-0.135 0.050-0.19 0.050-0.13 0-0.14 0.085-0.015 0.12 0.045 0.015-0.005 0.010-0.115-0.005-0.34-0.050-1.4-0.045-3.8 0.030-1.265 0.035-2.365 0.060-2.445 0.050-0.17-0.025-0.205-0.11-0.26-0.655l-0.035-0.34h0.57c0.315 0 1.235-0.035 2.045-0.075 2.745-0.145 3.125-0.16 4.065-0.17l0.94-0.005-0.060 0.11zM5.13 20.51c0.255 0.245 0.365 0.315 0.535 0.345 0.19 0.030 0.175 0.035-0.125 0.040-0.36 0.005-0.485 0.105-0.135 0.105 0.125 0 0.19 0.020 0.17 0.050-0.045 0.070-1.050 0.005-1.26-0.080-0.105-0.040-0.22-0.16-0.33-0.33-0.29-0.46-0.305-0.44 0.295-0.44h0.53l0.32 0.31zM5.52 20.415c0.075 0.095 0.13 0.19 0.13 0.21 0 0.055-0.245-0.175-0.305-0.29-0.085-0.15 0.040-0.095 0.175 0.080zM44.85 21.1v0.85l-12.435-0.005c-6.845-0.005-12.71-0.020-13.035-0.040l-0.595-0.030 0.010-0.5c0.005-0.275 0.015-0.5 0.020-0.505s1-0.020 2.215-0.030c1.89-0.015 2.215-0.005 2.295 0.060 0.13 0.11 0.995 0.12 4.89 0.055 3.485-0.060 5.1-0.1 9.535-0.23 3.785-0.115 4.66-0.16 5.1-0.275 0.415-0.11 1.020-0.185 1.615-0.195l0.385-0.005v0.85zM45.23 20.705c0.045 0.53-0.015 1.245-0.11 1.245-0.055 0-0.070-0.145-0.070-0.815 0-0.45 0.015-0.835 0.035-0.855 0.070-0.065 0.11 0.055 0.145 0.425zM18.59 21.24c0.015 0.425-0.040 0.68-0.155 0.7-0.080 0.015-0.085-0.025-0.055-0.425 0.035-0.56 0.060-0.675 0.135-0.65 0.035 0.010 0.065 0.15 0.075 0.375zM12.6 23.75c0 0.025-0.020 0.050-0.050 0.050-0.025 0-0.050-0.025-0.050-0.050 0-0.030 0.025-0.050 0.050-0.050 0.030 0 0.050 0.020 0.050 0.050zM18.965 23.735c-0.065 0.010-0.175 0.010-0.25 0-0.080-0.010-0.025-0.020 0.11-0.020 0.14 0 0.2 0.010 0.14 0.020zM14.85 23.8c0 0.025-0.020 0.050-0.045 0.050-0.030 0-0.065-0.025-0.080-0.050-0.015-0.030 0.005-0.050 0.045-0.050 0.045 0 0.080 0.020 0.080 0.050zM13.735 24.030c-0.015 0.015-0.060 0.020-0.095 0.005-0.040-0.015-0.025-0.030 0.030-0.030 0.055-0.005 0.085 0.010 0.065 0.025z"></path>
<path d="M4.85 16.14c0 0.115 0.245 0.49 0.435 0.665l0.14 0.135 0.9-0.045c3.385-0.155 3.425-0.16 3.425-0.245 0-0.090-0.235-0.11-0.82-0.070l-0.605 0.045 0.4 0.030 0.4 0.025-0.535 0.010c-0.315 0.005-0.54-0.010-0.55-0.040s-0.42-0.030-1.2 0.010c-0.655 0.035-1.18 0.070-1.17 0.080 0.010 0.005 0.16 0.035 0.335 0.055l0.32 0.040-0.385 0.010c-0.4 0.005-0.715-0.070-0.6-0.14 0.045-0.030 0.005-0.12-0.165-0.345-0.23-0.315-0.325-0.38-0.325-0.22z"></path>
<path d="M18.15 16.5c0.070 0.020 0.26 0.045 0.425 0.055l0.3 0.015-0.375 0.035c-0.245 0.025-0.080 0.030 0.485 0.020 0.475-0.010 0.89-0.035 0.925-0.055 0.13-0.080-0.16-0.115-1.010-0.11-0.51 0-0.825 0.015-0.75 0.040z"></path>
<path d="M7.050 18.2c-0.055 0.035-0.055 0.050-0.010 0.050 0.035 0 0.050 0.020 0.035 0.050-0.035 0.055 0.845 0.060 1.4 0 0.345-0.035 0.34-0.035-0.225-0.050-0.53-0.015-0.55-0.020-0.25-0.050 0.28-0.030 0.24-0.035-0.275-0.040-0.33-0.005-0.635 0.015-0.675 0.040z"></path>
<path d="M61.44 18.57c-0.025 0.135-0.035 0.37-0.035 0.525l0.005 0.28 0.050-0.245c0.025-0.135 0.040-0.37 0.030-0.525l-0.015-0.28-0.035 0.245z"></path>
<path d="M28.415 19.47c-1.525 0.060-2.015 0.12-1.060 0.14l0.52 0.010-1.050 0.060 0.65 0.005c1.090 0.010 2.53-0.060 2.57-0.125 0.025-0.040 0.26-0.070 0.685-0.080 0.44-0.015 0.55-0.010 0.345 0.015-0.27 0.035-0.255 0.040 0.19 0.035 0.285-0.005 0.485-0.025 0.485-0.055 0-0.070-1.52-0.075-3.335-0.005z"></path>
<path d="M9.25 15.345c0 0.060 0.030 0.105 0.080 0.105 0.045 0 0.070-0.035 0.060-0.085-0.025-0.125-0.14-0.14-0.14-0.020z"></path>
<path d="M7.32 15.505c-0.050 0.085 0.065 0.18 0.135 0.11 0.060-0.060 0.020-0.165-0.055-0.165-0.025 0-0.060 0.025-0.080 0.055z"></path>
<path d="M13 16.525c-0.74 0.15-1.165 0.385-1.75 0.97-0.46 0.46-0.66 0.78-0.86 1.38-0.095 0.29-0.115 0.455-0.115 0.975 0 0.555 0.015 0.675 0.145 1.070 0.335 1.020 1.135 1.835 2.14 2.185 0.93 0.32 2 0.205 2.875-0.31 0.365-0.215 0.94-0.79 1.15-1.145 0.31-0.53 0.43-0.955 0.455-1.655 0.020-0.535 0.005-0.685-0.085-1.020-0.475-1.72-2.215-2.8-3.955-2.45zM15.040 17.030c0.24 0.105 0.235 0.095 0.14 0.245-0.080 0.12-0.090 0.125-0.23 0.050-0.080-0.040-0.2-0.15-0.265-0.235-0.21-0.285-0.21-0.305-0.015-0.22 0.1 0.045 0.265 0.115 0.37 0.16zM12.705 16.985c-0.060 0.115-0.25 0.285-0.4 0.365-0.095 0.050-0.125 0.045-0.16-0.005-0.080-0.125-0.025-0.22 0.205-0.335 0.275-0.14 0.425-0.15 0.355-0.025zM14.415 16.96c-0.030 0.035-0.065 0.1-0.080 0.14-0.015 0.045-0.030 0.015-0.030-0.065-0.005-0.095 0.020-0.135 0.075-0.135 0.060 0 0.070 0.020 0.035 0.060zM14.185 17.285c-0.015 0.050-0.025 0.020-0.025-0.060 0-0.085 0.010-0.12 0.025-0.090 0.010 0.035 0.010 0.105 0 0.15zM15.55 17.405c0 0.030-0.020 0.035-0.050 0.020-0.025-0.015-0.050-0.055-0.050-0.080 0-0.030 0.025-0.035 0.050-0.020 0.030 0.015 0.050 0.055 0.050 0.080zM13.185 17.51c-0.015 0.035-0.025 0.010-0.025-0.060s0.010-0.095 0.025-0.065c0.010 0.035 0.010 0.095 0 0.125zM14.775 17.505c0.11 0.060 0.21 0.115 0.22 0.125 0.020 0.020-0.38 0.575-0.57 0.795l-0.13 0.15 0.025-0.235c0.040-0.335 0.18-0.94 0.22-0.94 0.020 0 0.125 0.050 0.235 0.105zM11.35 17.555c-0.035 0.055-0.070 0.090-0.085 0.075s0-0.060 0.035-0.105c0.090-0.105 0.115-0.095 0.050 0.030zM12.2 17.75c0.025 0 0.050 0.025 0.050 0.055s-0.065 0.005-0.15-0.055c-0.090-0.065-0.15-0.15-0.15-0.215 0-0.095 0.015-0.090 0.1 0.050 0.055 0.090 0.12 0.165 0.15 0.165zM12.895 17.71c0.085 0.41 0.155 0.855 0.135 0.875-0.015 0.020-0.435-0.535-0.6-0.795-0.090-0.135-0.090-0.135 0.080-0.24 0.265-0.16 0.325-0.135 0.385 0.16zM11.665 17.815c-0.1 0.11-0.51 0.31-0.55 0.265-0.035-0.035 0.165-0.305 0.32-0.43 0.12-0.095 0.135-0.095 0.225-0.020 0.085 0.080 0.085 0.090 0.005 0.185zM15.325 17.65c-0.050 0.055-0.1 0.090-0.115 0.075-0.035-0.030 0.090-0.175 0.155-0.175 0.025 0 0.010 0.045-0.040 0.1zM15.98 17.73c0.2 0.205 0.295 0.37 0.225 0.37-0.12 0-0.345-0.12-0.49-0.26-0.15-0.145-0.155-0.16-0.075-0.22 0.125-0.1 0.155-0.090 0.34 0.11zM14.135 17.76c-0.015 0.040-0.030 0.025-0.030-0.030-0.005-0.055 0.010-0.085 0.025-0.065 0.015 0.015 0.020 0.060 0.005 0.095zM12.34 18.44c0.175 0.255 0.31 0.475 0.3 0.49-0.015 0.010-0.245-0.115-0.515-0.28-0.27-0.16-0.515-0.305-0.545-0.315-0.080-0.030 0.28-0.39 0.37-0.375 0.040 0.010 0.22 0.225 0.39 0.48zM15.57 18.105c0.070 0.085 0.13 0.18 0.13 0.21 0 0.035-0.155 0.145-0.34 0.245s-0.435 0.245-0.555 0.32c-0.235 0.145-0.235 0.13 0.035-0.255 0.275-0.385 0.51-0.675 0.56-0.675 0.020 0 0.1 0.070 0.17 0.155zM16.3 18.275c0 0.040-0.020 0.075-0.045 0.075s-0.070-0.035-0.105-0.075c-0.050-0.065-0.045-0.075 0.045-0.075 0.060 0 0.105 0.030 0.105 0.075zM13.55 18.4c0 0.025-0.020 0.050-0.050 0.050-0.025 0-0.050-0.025-0.050-0.050 0-0.030 0.025-0.050 0.050-0.050 0.030 0 0.050 0.020 0.050 0.050zM16.050 18.6c-0.12 0.075-0.185 0.055-0.080-0.025 0.055-0.040 0.11-0.060 0.125-0.045s-0.005 0.045-0.045 0.070zM14.605 18.635c0.065 0.080 0.060 0.085-0.015 0.020-0.085-0.065-0.11-0.105-0.070-0.105 0.010 0 0.050 0.040 0.085 0.085zM11.6 18.675c0.080 0.045 0.095 0.070 0.045 0.075-0.040 0-0.12-0.035-0.175-0.075-0.12-0.090-0.035-0.095 0.13 0zM15.75 18.7c0 0.025-0.025 0.050-0.055 0.050-0.025 0-0.035-0.025-0.020-0.050 0.015-0.030 0.040-0.050 0.055-0.050 0.010 0 0.020 0.020 0.020 0.050zM13.15 18.92c0 0.010-0.045 0.030-0.1 0.045s-0.090 0.005-0.070-0.020c0.025-0.045 0.17-0.065 0.17-0.025zM13.45 19.105c0 0.030-0.020 0.035-0.050 0.020-0.025-0.015-0.050-0.055-0.050-0.080 0-0.030 0.025-0.035 0.050-0.020 0.030 0.015 0.050 0.055 0.050 0.080zM15.355 19.185c0.065 0.080 0.060 0.085-0.015 0.020-0.085-0.065-0.11-0.105-0.070-0.105 0.010 0 0.050 0.040 0.085 0.085zM13.050 19.455c0 0.015-0.055 0.020-0.12 0.010-0.080-0.015-0.115-0.050-0.095-0.095 0.020-0.050 0.045-0.055 0.12-0.005 0.050 0.030 0.095 0.075 0.095 0.090zM11.335 19.615c0.020 0.030-0.020 0.035-0.115 0.015-0.205-0.050-0.255-0.12-0.070-0.090 0.085 0.010 0.165 0.045 0.185 0.075zM15.305 19.585c0.065 0.080 0.060 0.085-0.015 0.020-0.085-0.065-0.11-0.105-0.070-0.105 0.010 0 0.050 0.040 0.085 0.085zM12.075 19.6c-0.015 0.025-0.055 0.050-0.080 0.050-0.030 0-0.035-0.025-0.020-0.050 0.015-0.030 0.055-0.050 0.080-0.050 0.030 0 0.035 0.020 0.020 0.050zM14.555 19.635c0.065 0.080 0.060 0.085-0.015 0.020-0.085-0.065-0.11-0.105-0.070-0.105 0.010 0 0.050 0.040 0.085 0.085zM16.25 19.6c-0.040 0.025-0.12 0.050-0.175 0.050-0.085 0-0.085-0.010-0.025-0.050 0.040-0.025 0.12-0.050 0.175-0.050 0.085 0 0.085 0.010 0.025 0.050zM11.685 19.68c-0.015 0.015-0.060 0.020-0.095 0.005-0.040-0.015-0.025-0.030 0.030-0.030 0.055-0.005 0.085 0.010 0.065 0.025zM10.755 19.835c0.065 0.080 0.060 0.085-0.015 0.020-0.050-0.035-0.090-0.075-0.090-0.085 0-0.040 0.040-0.015 0.105 0.065zM10.82 20.275c0.040 0.205-0.015 0.305-0.14 0.26-0.11-0.045-0.18-0.25-0.18-0.525l0.005-0.235 0.14 0.155c0.080 0.085 0.155 0.24 0.175 0.345zM16.8 20.090c0 0.16-0.030 0.33-0.065 0.38-0.080 0.11-0.235 0.055-0.235-0.080 0-0.13 0.2-0.59 0.255-0.59 0.025 0 0.045 0.13 0.045 0.29zM14.635 19.88c-0.015 0.015-0.060 0.020-0.095 0.005-0.040-0.015-0.025-0.030 0.030-0.030 0.055-0.005 0.085 0.010 0.065 0.025zM15.285 19.88c-0.015 0.015-0.060 0.020-0.095 0.005-0.040-0.015-0.025-0.030 0.030-0.030 0.055-0.005 0.085 0.010 0.065 0.025zM16.26 20.135c-0.010 0.135-0.040 0.26-0.060 0.285-0.025 0.020-0.295-0.045-0.61-0.15-0.31-0.1-0.54-0.195-0.51-0.205 0.050-0.015 0.965-0.145 1.12-0.16 0.060-0.005 0.070 0.045 0.060 0.23zM12.075 20.040l0.15 0.040-0.15 0.055c-0.085 0.030-0.335 0.125-0.555 0.21l-0.41 0.15-0.030-0.11c-0.015-0.060-0.030-0.185-0.030-0.28v-0.17l0.44 0.035c0.24 0.015 0.5 0.050 0.585 0.070zM11.805 20.485c0.065 0.080 0.060 0.085-0.015 0.020-0.050-0.035-0.090-0.075-0.090-0.085 0-0.040 0.040-0.015 0.105 0.065zM12 20.95c-0.23 0.22-0.44 0.4-0.46 0.4-0.050 0-0.29-0.355-0.29-0.43 0-0.050 0.925-0.355 1.1-0.36 0.040-0.005-0.115 0.175-0.35 0.39zM14.3 20.65c-0.055 0.105-0.2 0.14-0.2 0.050 0-0.030 0.035-0.050 0.075-0.050s0.075-0.025 0.075-0.050c0-0.030 0.025-0.050 0.050-0.050 0.035 0 0.035 0.030 0 0.1zM15.53 20.71c0.285 0.085 0.52 0.175 0.52 0.2 0 0.085-0.205 0.44-0.255 0.44-0.060 0-0.885-0.795-0.83-0.8 0.025 0 0.28 0.070 0.565 0.16zM14.805 20.685c0.065 0.080 0.060 0.085-0.015 0.020-0.050-0.035-0.090-0.075-0.090-0.085 0-0.040 0.040-0.015 0.105 0.065zM11.030 20.76c0.025 0.040-0.010 0.045-0.12 0.025-0.105-0.020-0.16-0.015-0.16 0.025 0 0.030-0.015 0.045-0.030 0.025-0.015-0.015-0.015-0.050 0.005-0.080 0.040-0.075 0.26-0.070 0.305 0.005zM16.45 20.86c0 0.030-0.035 0.025-0.075-0.010s-0.075-0.085-0.075-0.11c0-0.030 0.035-0.025 0.075 0.010s0.075 0.085 0.075 0.11zM14.855 21.085c0.065 0.080 0.060 0.085-0.015 0.020-0.085-0.065-0.11-0.105-0.070-0.105 0.010 0 0.050 0.040 0.085 0.085zM14.625 21.145c-0.015 0.030-0.070 0.055-0.115 0.055-0.065 0-0.065-0.010 0.020-0.070 0.105-0.075 0.15-0.070 0.095 0.015zM16.55 21.105c0 0.070-0.29 0.58-0.35 0.62-0.080 0.050-0.1-0.225-0.030-0.4 0.085-0.2 0.38-0.37 0.38-0.22zM11.12 21.27c0.090 0.19 0.105 0.43 0.030 0.43-0.060 0-0.35-0.44-0.35-0.535 0-0.035 0.055-0.065 0.12-0.065 0.085 0 0.14 0.045 0.2 0.17zM15.355 21.185c0.065 0.080 0.060 0.085-0.015 0.020-0.085-0.065-0.11-0.105-0.070-0.105 0.010 0 0.050 0.040 0.085 0.085zM15.325 21.34c-0.015 0.015-0.055 0-0.090-0.035-0.045-0.050-0.040-0.055 0.030-0.025 0.050 0.015 0.075 0.045 0.060 0.060zM12.1 21.315c0 0.010-0.095 0.105-0.21 0.21l-0.215 0.2 0.2-0.215c0.18-0.195 0.225-0.235 0.225-0.195zM14.4 22.355c0 0.055-0.060 0.090-0.185 0.115-0.36 0.055-0.34 0.095-0.32-0.58l0.015-0.615 0.245 0.5c0.135 0.275 0.245 0.535 0.245 0.58zM14.9 21.315c0 0.010-0.050 0.060-0.105 0.115-0.11 0.095-0.11 0.095-0.040-0.020 0.060-0.095 0.145-0.15 0.145-0.095zM13.445 22.17l0.005 0.345-0.21-0.035c-0.11-0.020-0.225-0.045-0.25-0.060-0.080-0.050-0.035-0.225 0.175-0.65l0.21-0.43 0.035 0.245c0.015 0.13 0.035 0.395 0.035 0.585zM12.25 21.45c0 0.025-0.035 0.050-0.075 0.050s-0.075-0.025-0.075-0.050c0-0.030 0.035-0.050 0.075-0.050s0.075 0.020 0.075 0.050zM13.585 21.585c-0.015 0.050-0.025 0.020-0.025-0.060 0-0.085 0.010-0.12 0.025-0.090 0.010 0.035 0.010 0.105 0 0.15zM15.715 21.81l0.090 0.165-0.15-0.175c-0.085-0.095-0.155-0.19-0.155-0.215 0-0.080 0.12 0.045 0.215 0.225zM11.395 21.865c0.005 0.025-0.015 0.025-0.045 0.010-0.025-0.015-0.050-0.080-0.045-0.14 0-0.105 0.005-0.105 0.045-0.010 0.025 0.055 0.045 0.12 0.045 0.14zM12.3 21.825c0.035 0.045 0.040 0.075 0.010 0.075-0.025 0-0.060-0.035-0.080-0.075-0.015-0.040-0.020-0.075-0.010-0.075s0.045 0.035 0.080 0.075zM13.67 22.030c0.045 0.12 0.035 0.56-0.015 0.59-0.025 0.020-0.055-0.125-0.065-0.32-0.015-0.335 0.015-0.44 0.080-0.27zM14.67 22.030c0.045 0.12 0.010 0.13-0.060 0.020-0.035-0.055-0.040-0.1-0.015-0.1s0.060 0.035 0.075 0.080zM12.55 22.295c-0.025 0.055-0.075 0.115-0.11 0.135-0.035 0.025-0.040 0.010-0.015-0.035 0.105-0.185 0.22-0.275 0.125-0.1zM15.050 22.605c0 0.030-0.020 0.035-0.050 0.020-0.025-0.015-0.050-0.055-0.050-0.080 0-0.030 0.025-0.035 0.050-0.020 0.030 0.015 0.050 0.055 0.050 0.080zM13.285 22.63c-0.015 0.015-0.060 0.020-0.095 0.005-0.040-0.015-0.025-0.030 0.030-0.030 0.055-0.005 0.085 0.010 0.065 0.025zM13.38 22.86c-0.020 0.18-0.015 0.18-0.445 0.085-0.38-0.090-0.225-0.225 0.275-0.24 0.185-0.005 0.19 0 0.17 0.155zM14.645 22.795c0.090 0.055 0.035 0.080-0.305 0.155-0.315 0.060-0.39 0.045-0.39-0.105 0-0.085 0.035-0.095 0.315-0.095 0.17 0 0.34 0.020 0.38 0.045z"></path>
<path d="M49.575 16.55c-1.42 0.165-2.53 1.155-2.91 2.6-0.11 0.425-0.11 1.17 0 1.6 0.185 0.695 0.635 1.4 1.175 1.825 0.425 0.34 1.080 0.655 1.515 0.725 0.99 0.165 2.105-0.13 2.84-0.755 0.805-0.69 1.26-1.765 1.185-2.82-0.035-0.565-0.125-0.9-0.365-1.375-0.25-0.5-0.89-1.15-1.39-1.41-0.615-0.32-1.39-0.47-2.050-0.39zM49.015 17.090c-0.080 0.1-0.22 0.225-0.31 0.28-0.155 0.090-0.16 0.090-0.23 0-0.040-0.055-0.070-0.12-0.075-0.145 0-0.050 0.705-0.375 0.745-0.34 0.015 0.010-0.045 0.1-0.13 0.205zM51.595 17.185c0.035 0.025-0.15 0.265-0.205 0.265-0.070 0-0.54-0.475-0.54-0.545 0-0.035 0.615 0.195 0.745 0.28zM49.3 17c0 0.025-0.020 0.050-0.050 0.050-0.025 0-0.050-0.025-0.050-0.050 0-0.030 0.025-0.050 0.050-0.050 0.030 0 0.050 0.020 0.050 0.050zM50.8 17.025c0 0.040-0.020 0.075-0.050 0.075-0.025 0-0.050-0.035-0.050-0.075s0.025-0.075 0.050-0.075c0.030 0 0.050 0.035 0.050 0.075zM50.535 17.36c-0.015 0.040-0.030 0.025-0.030-0.030-0.005-0.055 0.010-0.085 0.025-0.065 0.015 0.015 0.020 0.060 0.005 0.095zM49.54 17.625c0 0.145 0 0.145-0.040 0.025-0.020-0.070-0.040-0.18-0.040-0.25-0.005-0.115 0-0.115 0.040-0.025 0.025 0.055 0.040 0.165 0.040 0.25zM51.835 17.43c-0.015 0.015-0.060 0.020-0.095 0.005-0.040-0.015-0.025-0.030 0.030-0.030 0.055-0.005 0.085 0.010 0.065 0.025zM49.28 18.050c0.135 0.615 0.135 0.615 0.065 0.57-0.075-0.045-0.645-0.82-0.645-0.875 0-0.065 0.31-0.25 0.395-0.235 0.050 0.010 0.11 0.19 0.185 0.54zM51.14 17.6c0.145 0.090 0.155 0.11 0.105 0.215-0.080 0.155-0.605 0.84-0.625 0.82-0.015-0.010 0.025-0.27 0.085-0.575 0.115-0.62 0.14-0.64 0.435-0.46zM48.060 17.755c0.095 0.060-0.39 0.395-0.575 0.395-0.115 0-0.060-0.1 0.215-0.4 0.195-0.21 0.21-0.215 0.265-0.125 0.025 0.055 0.070 0.115 0.095 0.13zM52.55 18.11c0 0.12-0.355-0.025-0.54-0.225-0.115-0.12-0.115-0.125-0.025-0.235l0.090-0.105 0.24 0.26c0.13 0.145 0.235 0.28 0.235 0.305zM50.485 17.71c-0.015 0.040-0.030 0.025-0.030-0.030-0.005-0.055 0.010-0.085 0.025-0.065 0.015 0.015 0.020 0.060 0.005 0.095zM48.525 17.8c0.015 0.025-0.005 0.050-0.045 0.050s-0.090-0.025-0.105-0.050c-0.015-0.030 0.005-0.050 0.045-0.050s0.090 0.020 0.105 0.050zM51.625 17.8c-0.015 0.025-0.065 0.050-0.105 0.050s-0.060-0.025-0.045-0.050c0.015-0.030 0.065-0.050 0.105-0.050s0.060 0.020 0.045 0.050zM48.665 18.495c0.185 0.275 0.335 0.51 0.335 0.525s-0.245-0.125-0.55-0.305c-0.3-0.18-0.55-0.345-0.55-0.37 0-0.040 0.355-0.345 0.4-0.345 0.015 0 0.175 0.225 0.365 0.495zM51.895 18.17c0.090 0.095 0.15 0.195 0.135 0.22-0.015 0.030-0.17 0.13-0.345 0.225-0.17 0.1-0.395 0.235-0.495 0.305-0.105 0.070-0.19 0.115-0.19 0.1 0-0.085 0.64-1.020 0.695-1.020 0.020 0 0.11 0.075 0.2 0.17zM52.575 18.305c0.055 0.085-0.005 0.105-0.075 0.020-0.040-0.045-0.040-0.075-0.010-0.075s0.070 0.025 0.085 0.055zM47.85 18.7c0.065 0.040 0.065 0.050-0.010 0.050-0.045 0-0.1-0.025-0.115-0.050-0.040-0.065 0.025-0.065 0.125 0zM52.25 18.675c0 0.010-0.065 0.055-0.15 0.1-0.080 0.045-0.15 0.060-0.15 0.035s0.050-0.070 0.115-0.1c0.125-0.060 0.185-0.070 0.185-0.035zM47.5 18.8c0 0.025-0.035 0.050-0.080 0.050-0.040 0-0.060-0.025-0.045-0.050 0.015-0.030 0.050-0.050 0.080-0.050 0.025 0 0.045 0.020 0.045 0.050zM50.355 18.915c-0.050 0.045-0.055 0.040-0.025-0.030 0.015-0.050 0.045-0.075 0.060-0.060s0 0.055-0.035 0.090zM49.985 19.010c-0.015 0.035-0.025 0.010-0.025-0.060s0.010-0.095 0.025-0.065c0.010 0.035 0.010 0.095 0 0.125zM50.775 18.955c0.055 0.085-0.005 0.105-0.075 0.020-0.040-0.045-0.040-0.075-0.010-0.075s0.070 0.025 0.085 0.055zM48.6 19.3c0 0.025-0.020 0.050-0.050 0.050-0.025 0-0.050-0.025-0.050-0.050 0-0.030 0.025-0.050 0.050-0.050 0.030 0 0.050 0.020 0.050 0.050zM47.625 19.65l0.1 0.045h-0.1c-0.055 0-0.145-0.020-0.2-0.045l-0.1-0.045h0.1c0.055 0 0.145 0.020 0.2 0.045zM52.575 19.65c-0.055 0.025-0.145 0.045-0.2 0.045h-0.1l0.1-0.045c0.055-0.025 0.145-0.045 0.2-0.045h0.1l-0.1 0.045zM47.425 19.85c-0.015 0.025-0.055 0.050-0.080 0.050-0.030 0-0.035-0.025-0.020-0.050 0.015-0.030 0.055-0.050 0.080-0.050 0.030 0 0.035 0.020 0.020 0.050zM47.15 20.345c0.055 0.195 0.030 0.255-0.095 0.255-0.155 0-0.205-0.11-0.205-0.445v-0.325l0.125 0.17c0.070 0.095 0.145 0.25 0.175 0.345zM48.485 19.93c-0.015 0.015-0.060 0.020-0.095 0.005-0.040-0.015-0.025-0.030 0.030-0.030 0.055-0.005 0.085 0.010 0.065 0.025zM53.15 20.12c0 0.325-0.070 0.48-0.225 0.48-0.070 0-0.125-0.030-0.125-0.065 0-0.205 0.2-0.635 0.3-0.635 0.030 0 0.050 0.1 0.050 0.22zM52.6 20.205c-0.020 0.11-0.060 0.225-0.085 0.25s-0.185 0-0.39-0.060c-0.195-0.055-0.435-0.125-0.535-0.155-0.105-0.030-0.19-0.070-0.19-0.085 0-0.035 1.145-0.195 1.205-0.17 0.020 0.005 0.015 0.105-0.005 0.22zM48.085 20.055c0.215 0.030 0.41 0.075 0.43 0.095 0.050 0.045-1 0.365-1.065 0.325-0.060-0.035-0.12-0.355-0.075-0.42 0.040-0.070 0.225-0.070 0.71 0zM47.285 20.36c-0.015 0.040-0.030 0.025-0.030-0.030-0.005-0.055 0.010-0.085 0.025-0.065 0.015 0.015 0.020 0.060 0.005 0.095zM52.735 20.36c-0.015 0.040-0.030 0.025-0.030-0.030-0.005-0.055 0.010-0.085 0.025-0.065 0.015 0.015 0.020 0.060 0.005 0.095zM48.355 20.485c0.065 0.080 0.060 0.085-0.015 0.020-0.050-0.035-0.090-0.075-0.090-0.085 0-0.040 0.040-0.015 0.105 0.065zM49.235 20.66c-0.015 0.040-0.030 0.025-0.030-0.030-0.005-0.055 0.010-0.085 0.025-0.065 0.015 0.015 0.020 0.060 0.005 0.095zM50.8 20.63c0 0.040-0.025 0.060-0.050 0.045-0.030-0.020-0.040-0.055-0.025-0.080 0.045-0.070 0.075-0.055 0.075 0.035zM48.355 21.005c-0.24 0.23-0.45 0.395-0.5 0.385-0.040-0.010-0.13-0.11-0.195-0.225l-0.115-0.21 0.515-0.155c0.285-0.090 0.54-0.165 0.565-0.175 0.16-0.055 0.11 0.020-0.27 0.38zM49.53 20.735c-0.035 0.035-0.13-0.035-0.13-0.095 0-0.030 0.030-0.030 0.075 0.010 0.045 0.035 0.065 0.075 0.055 0.085zM51.775 20.75c0.43 0.13 0.625 0.205 0.625 0.24 0 0.050-0.255 0.46-0.285 0.46-0.040 0-0.49-0.425-0.715-0.67-0.135-0.15-0.15-0.185-0.075-0.165 0.055 0.020 0.26 0.080 0.45 0.135zM52.3 20.675c0 0.040-0.020 0.075-0.050 0.075-0.025 0-0.035-0.035-0.020-0.075 0.020-0.040 0.040-0.075 0.050-0.075s0.020 0.035 0.020 0.075zM47.365 20.835c-0.035 0.010-0.105 0.010-0.15 0-0.050-0.015-0.020-0.025 0.060-0.025 0.085 0 0.12 0.010 0.090 0.025zM47.495 21.435c0.045 0.165 0.025 0.365-0.045 0.365-0.035 0-0.35-0.555-0.35-0.615 0-0.015 0.050-0.035 0.115-0.045 0.13-0.025 0.22 0.070 0.28 0.295zM49 21.145c0 0.060-0.1 0.125-0.135 0.090s0.030-0.135 0.090-0.135c0.025 0 0.045 0.020 0.045 0.045zM52.9 21.185c0 0.090-0.365 0.61-0.41 0.585-0.070-0.045-0.020-0.395 0.075-0.54 0.060-0.090 0.11-0.11 0.205-0.095 0.070 0.015 0.13 0.040 0.13 0.050zM49.985 21.36c-0.015 0.040-0.030 0.025-0.030-0.030-0.005-0.055 0.010-0.085 0.025-0.065 0.015 0.015 0.020 0.060 0.005 0.095zM51.15 21.345c-0.055 0.105-0.15 0.185-0.15 0.125 0-0.040 0.15-0.22 0.185-0.22 0.010 0-0.005 0.045-0.035 0.095zM51.9 21.425c0.065 0.070 0.105 0.125 0.090 0.125-0.010 0-0.075-0.055-0.14-0.125s-0.105-0.125-0.090-0.125c0.010 0 0.075 0.055 0.14 0.125zM48.2 21.365c0 0.010-0.050 0.060-0.105 0.115-0.11 0.095-0.11 0.095-0.050-0.020 0.050-0.090 0.155-0.155 0.155-0.095zM49.77 21.96l0.030 0.59h-0.195c-0.24 0-0.355-0.040-0.355-0.125 0-0.065 0.455-1.085 0.475-1.065 0.005 0.010 0.025 0.28 0.045 0.6zM50.515 21.9c0.215 0.485 0.225 0.53 0.145 0.59-0.045 0.035-0.165 0.060-0.26 0.050l-0.175-0.015-0.015-0.375c-0.015-0.34 0.025-0.835 0.065-0.79 0.005 0.005 0.115 0.25 0.24 0.54zM49.050 21.525c0.065 0.070 0.105 0.125 0.090 0.125-0.010 0-0.075-0.055-0.14-0.125s-0.105-0.125-0.090-0.125c0.010 0 0.075 0.055 0.14 0.125zM48.125 21.7c-0.050 0.055-0.1 0.090-0.115 0.075s0.015-0.070 0.065-0.125c0.050-0.055 0.1-0.090 0.115-0.075s-0.015 0.070-0.065 0.125zM48.555 21.635c0.065 0.080 0.060 0.085-0.015 0.020-0.050-0.035-0.090-0.075-0.090-0.085 0-0.040 0.040-0.015 0.105 0.065zM51.3 21.675c-0.035 0.045-0.075 0.065-0.085 0.055-0.035-0.035 0.035-0.13 0.095-0.13 0.030 0 0.030 0.030-0.010 0.075zM51.95 21.725c0.1 0.12 0.030 0.14-0.075 0.025-0.050-0.055-0.065-0.1-0.040-0.1 0.030 0 0.080 0.035 0.115 0.075zM48.575 21.955c0.055 0.085-0.005 0.105-0.075 0.020-0.040-0.045-0.040-0.075-0.010-0.075s0.070 0.025 0.085 0.055zM50.050 22.345c0 0.105-0.015 0.27-0.035 0.36-0.035 0.15-0.045 0.125-0.070-0.18-0.015-0.195-0.020-0.365-0.005-0.39 0.045-0.090 0.11 0.035 0.11 0.21zM48.915 22.305c-0.050 0.085-0.12 0.18-0.16 0.21-0.085 0.070-0.055 0.005 0.105-0.23 0.13-0.185 0.165-0.17 0.055 0.020zM51.12 22.345c-0.030 0.030-0.12-0.095-0.12-0.17 0.005-0.030 0.035-0.005 0.075 0.045 0.040 0.055 0.060 0.11 0.045 0.125zM48.3 22.45c0 0.025-0.020 0.050-0.050 0.050-0.025 0-0.050-0.025-0.050-0.050 0-0.030 0.025-0.050 0.050-0.050 0.030 0 0.050 0.020 0.050 0.050zM51.75 22.45c0 0.025-0.010 0.050-0.020 0.050-0.015 0-0.040-0.025-0.055-0.050-0.015-0.030-0.005-0.050 0.020-0.050 0.030 0 0.055 0.020 0.055 0.050zM51.305 22.585c0.065 0.080 0.060 0.085-0.015 0.020-0.050-0.035-0.090-0.075-0.090-0.085 0-0.040 0.040-0.015 0.105 0.065zM49.635 22.68c-0.015 0.015-0.060 0.020-0.095 0.005-0.040-0.015-0.025-0.030 0.030-0.030 0.055-0.005 0.085 0.010 0.065 0.025zM50.435 22.68c-0.015 0.015-0.060 0.020-0.095 0.005-0.040-0.015-0.025-0.030 0.030-0.030 0.055-0.005 0.085 0.010 0.065 0.025zM49.69 22.97c0.015 0.105 0 0.135-0.050 0.12-0.035-0.015-0.195-0.055-0.35-0.090-0.435-0.1-0.375-0.2 0.11-0.185 0.265 0.010 0.275 0.015 0.29 0.155zM50.95 22.85c0.060 0.035 0.050 0.055-0.050 0.090-0.070 0.025-0.205 0.065-0.3 0.080-0.095 0.020-0.215 0.050-0.26 0.060-0.12 0.035-0.115-0.055 0.010-0.18 0.105-0.105 0.46-0.14 0.6-0.050zM50.050 23c0 0.025-0.045 0.050-0.1 0.050s-0.1-0.025-0.1-0.050c0-0.030 0.045-0.050 0.1-0.050s0.1 0.020 0.1 0.050z"></path>
<path d="M7.43 19.085c-0.015 0.015-0.030 0.105-0.030 0.2 0 0.11-0.025 0.165-0.070 0.165s-0.060-0.035-0.045-0.090c0.025-0.105-0.24-0.265-0.275-0.165-0.010 0.030-0.045 0.055-0.085 0.055-0.105 0-0.195 0.27-0.125 0.395 0.065 0.13 0.115 0.135 0.075 0.010-0.015-0.060 0-0.105 0.050-0.125 0.060-0.020 0.070 0 0.045 0.090-0.030 0.135 0.070 0.195 0.255 0.15 0.115-0.030 0.2-0.185 0.3-0.555 0.030-0.105-0.030-0.19-0.095-0.13zM7.145 19.355c-0.080 0.050-0.115 0.020-0.070-0.050 0.015-0.030 0.055-0.040 0.085-0.025 0.030 0.020 0.025 0.045-0.015 0.075z"></path>
</svg>
