
<svg fill="#3470ff" height="800px" width="800px" version="1.1" id="Capa_1" xmlns="http://www.w3.org/2000/svg" xmlns:xlink="http://www.w3.org/1999/xlink" 
	 viewBox="0 0 511 511" xml:space="preserve">
<g>
	<path d="M127.5,320.712c-4.142,0-7.5,3.358-7.5,7.5c0,9.098-7.402,16.5-16.5,16.5S87,337.31,87,328.212s7.402-16.5,16.5-16.5
		c4.142,0,7.5-3.358,7.5-7.5s-3.358-7.5-7.5-7.5c-17.369,0-31.5,14.131-31.5,31.5s14.131,31.5,31.5,31.5s31.5-14.131,31.5-31.5
		C135,324.07,131.642,320.712,127.5,320.712z"/>
	<path d="M439.5,320.712c-4.142,0-7.5,3.358-7.5,7.5c0,9.098-7.402,16.5-16.5,16.5s-16.5-7.402-16.5-16.5s7.402-16.5,16.5-16.5
		c4.142,0,7.5-3.358,7.5-7.5s-3.358-7.5-7.5-7.5c-17.369,0-31.5,14.131-31.5,31.5s14.131,31.5,31.5,31.5s31.5-14.131,31.5-31.5
		C447,324.07,443.642,320.712,439.5,320.712z"/>
	<path d="M503.5,288.712H503v-6.304c0-13.742-5.964-26.747-16.158-35.733c-0.2-0.958-0.591-1.892-1.185-2.746l-0.945-1.361
		c-8.049-11.607-15.651-22.571-38.194-30.307c-18.562-6.369-46.213-10.211-87.702-12.046l-35.478-56.262
		c-0.059-0.092-0.119-0.183-0.181-0.273c-5.841-8.424-14.649-18.356-31.06-20.409c-11.969-1.499-118.593-13.824-175.893,14.205
		c-29.224,14.294-68.653,46.77-94.618,120.44c-0.693,1.614-1.31,3.272-1.835,4.976l-7.945,25.821H7.5c-4.142,0-7.5,3.358-7.5,7.5
		c0,4.04,3.196,7.324,7.196,7.485l-3.679,11.957c-1.462,4.75-0.606,9.769,2.347,13.767c2.953,3.999,7.497,6.292,12.468,6.292h22.126
		c3.724,31.49,30.567,56,63.042,56s59.318-24.51,63.042-56h185.916c3.724,31.49,30.567,56,63.042,56s59.318-24.51,63.042-56H495.5
		c4.142,0,7.5-3.358,7.5-7.5v-24.5h0.5c4.142,0,7.5-3.358,7.5-7.5S507.642,288.712,503.5,288.712z M340.674,199.565
		c-3.646-0.103-7.385-0.194-11.22-0.273l-21.52-43.47c1.97-0.347,3.386-0.37,3.394-0.37c0.493,0,0.974-0.051,1.44-0.141
		L340.674,199.565z M122.795,150.949c43.367-21.212,125.655-18.024,167.44-12.795c4.159,0.52,7.661,1.73,10.886,3.873
		c-2.374,0.691-4.927,1.683-7.392,3.111c-3.419,1.98-4.715,6.275-2.962,9.817l21.813,44.063c-3.728-0.046-7.429-0.085-11.092-0.11
		l-16.925-38.489c-3.312-7.531-10.408-12.838-18.521-13.851c-12.504-1.56-37.462-3.808-64.121-1.338
		c-33.152,3.072-58.941,12.369-76.65,27.634c-12.094,10.424-22.205,27.213-18.541,39.486c-3.905,0.775-7.706,1.58-11.379,2.421
		c-25.06,5.741-38.941,11.867-46.19,16.003C72.116,184.213,100.69,161.762,122.795,150.949z M123.892,209.279
		c-1.036-0.12-2.531-0.419-2.779-1.152c-1.272-3.746,3.53-14.919,13.951-23.901c36.563-31.513,108.076-25.398,129.122-22.772
		c2.902,0.362,5.449,2.279,6.647,5.004l14.25,32.406C220.266,198.958,166.3,202.446,123.892,209.279z M103.5,376.712
		c-26.743,0-48.5-21.757-48.5-48.5s21.757-48.5,48.5-48.5s48.5,21.757,48.5,48.5S130.243,376.712,103.5,376.712z M415.5,376.712
		c-26.743,0-48.5-21.757-48.5-48.5s21.757-48.5,48.5-48.5c26.728,0,48.474,21.733,48.499,48.455c0,0.015-0.002,0.03-0.002,0.045
		s0.002,0.03,0.002,0.045C463.974,354.979,442.228,376.712,415.5,376.712z M488,320.712h-9.458c-3.724-31.49-30.567-56-63.042-56
		s-59.318,24.51-63.042,56h-17.143c0.816-9.8,3.232-19.292,7.224-28.304c1.678-3.787-0.033-8.217-3.82-9.895
		c-3.787-1.676-8.217,0.033-9.895,3.82c-4.845,10.937-7.707,22.472-8.553,34.379H190.719c-1.131-15.599-5.767-30.779-13.593-44.294
		c-2.075-3.585-6.665-4.806-10.249-2.732c-3.584,2.076-4.808,6.664-2.732,10.249c6.505,11.234,10.426,23.82,11.525,36.777h-9.129
		c-3.724-31.49-30.567-56-63.042-56s-59.318,24.51-63.042,56H18.332c-0.082,0-0.252,0-0.402-0.203
		c-0.15-0.203-0.1-0.366-0.076-0.444l5.032-16.353H31.5c4.142,0,7.5-3.358,7.5-7.5s-3.358-7.5-7.5-7.5h-3.999l4.395-14.283
		c1.177-3.757,2.39-7.404,3.633-10.953c3.13-7.063,8.493-12.692,15.15-15.749c11.583-5.319,23.971-8.016,36.821-8.016
		c22.668,0,44.229,8.562,60.711,24.107c3.013,2.842,7.759,2.703,10.602-0.31c2.842-3.013,2.703-7.76-0.31-10.602
		c-13.82-13.036-30.694-21.871-48.909-25.829c64.644-12.78,153.526-14.067,217.76-12.827c56.226,1.087,92.335,4.883,113.49,11.931
		c-5.689-0.964-11.484-1.471-17.345-1.471c-30.173,0-58.776,13.127-78.476,36.016c-2.702,3.14-2.347,7.875,0.792,10.577
		s7.875,2.347,10.577-0.792c16.847-19.574,41.307-30.801,67.107-30.801c18.211,0,35.708,5.524,50.602,15.977
		c8.703,6.107,13.898,16.096,13.898,26.72v6.304h-0.5c-4.142,0-7.5,3.358-7.5,7.5s3.358,7.5,7.5,7.5h0.5V320.712z"/>
</g>
</svg>